<mxfile host="app.diagrams.net" modified="2023-11-18T13:03:19.006Z" agent="Mozilla/5.0 (Windows NT 10.0; Win64; x64) AppleWebKit/537.36 (KHTML, like Gecko) Chrome/119.0.0.0 Safari/537.36" version="22.1.3" etag="zyKZHj6G7Wo8J2uRfTba" type="github">
  <diagram name="Страница — 1" id="Kizh821YW3FtgVJ0jJ4G">
    <mxGraphModel>
      <root>
        <mxCell id="0" />
        <mxCell id="1" parent="0" />
      </root>
    </mxGraphModel>
  </diagram>
</mxfile>
